<svg id="Layer_1" data-name="Layer 1" xmlns="http://www.w3.org/2000/svg" viewBox="0 0 316.24 34.4"><defs><style>.cls-1{fill:#00945f;}</style></defs><title>logo-mobile</title><path class="cls-1" d="M32.86,33.6a2.72,2.72,0,0,1-3.84,0l-6.28-6.27.05,4.35a2.5,2.5,0,0,1-2.65,2.69,2.68,2.68,0,0,1-2.73-2.69V26.26a2.68,2.68,0,0,1,1.7-2.53A6.74,6.74,0,0,0,23,19.85a2.69,2.69,0,0,1,2.53-1.7h5.42a2.69,2.69,0,0,1,2.69,2.73,2.5,2.5,0,0,1-2.69,2.65l-4.36,0,6.28,6.27A2.72,2.72,0,0,1,32.86,33.6Z"/><path class="cls-1" d="M32.86,1.54a2.72,2.72,0,0,1,0,3.84l-6.27,6.27,4.35,0a2.5,2.5,0,0,1,2.69,2.65A2.69,2.69,0,0,1,30.94,17H25.52A2.69,2.69,0,0,1,23,15.29a6.72,6.72,0,0,0-3.88-3.88,2.7,2.7,0,0,1-1.7-2.53V3.45A2.68,2.68,0,0,1,20.14.77a2.5,2.5,0,0,1,2.65,2.68l-.05,4.36L29,1.54A2.72,2.72,0,0,1,32.86,1.54Z"/><path class="cls-1" d="M.79,1.54a2.73,2.73,0,0,1,3.85,0l6.27,6.27,0-4.36A2.5,2.5,0,0,1,13.52.76a2.69,2.69,0,0,1,2.73,2.69V8.88a2.7,2.7,0,0,1-1.7,2.53,6.73,6.73,0,0,0-3.89,3.88A2.69,2.69,0,0,1,8.14,17H2.71A2.69,2.69,0,0,1,0,14.26a2.51,2.51,0,0,1,2.69-2.65l4.36,0L.79,5.38A2.73,2.73,0,0,1,.79,1.54Z"/><path class="cls-1" d="M.79,33.6a2.73,2.73,0,0,1,0-3.84l6.28-6.27-4.36,0A2.51,2.51,0,0,1,0,20.88a2.69,2.69,0,0,1,2.69-2.73H8.14a2.68,2.68,0,0,1,2.52,1.7,6.77,6.77,0,0,0,3.88,3.88,2.7,2.7,0,0,1,1.71,2.53v5.42a2.69,2.69,0,0,1-2.73,2.69,2.5,2.5,0,0,1-2.65-2.69l0-4.35L4.64,33.6A2.73,2.73,0,0,1,.79,33.6Z"/><path class="cls-1" d="M314.44,15.94a4,4,0,0,1-5.66,0,4,4,0,0,1,0-5.7,4,4,0,0,1,5.66,0,4,4,0,0,1,0,5.7Zm.44-6.12a4.61,4.61,0,0,0-6.54,0A4.42,4.42,0,0,0,307,13.09a4.63,4.63,0,1,0,7.9-3.27Zm-2.34,3.48a2.23,2.23,0,0,0,.84-.55,1.25,1.25,0,0,0,.3-.86,1.28,1.28,0,0,0-.16-.65,1.32,1.32,0,0,0-.49-.44,2.06,2.06,0,0,0-.65-.21,6.37,6.37,0,0,0-.83,0h-1.67v4.88h.88V13.54h.87l1.76,1.89h1.2Zm.11-1a.67.67,0,0,1-.24.3.87.87,0,0,1-.39.17,3.13,3.13,0,0,1-.58,0h-.68V11.21h.8a3,3,0,0,1,.47,0,1.09,1.09,0,0,1,.36.12.58.58,0,0,1,.25.24.77.77,0,0,1,.08.34A.93.93,0,0,1,312.65,12.34Z"/><path class="cls-1" d="M56.47,33.61c-10.74,0-14.19-7.14-14.19-14.78,0-9.73,5.09-16.56,15.37-16.56a25.73,25.73,0,0,1,6.5.82l-.64,5.37a21.91,21.91,0,0,0-6.18-.91c-5.73,0-8.55,4.32-8.55,10.28,0,6.68,2.78,10.41,9,10.41a16.21,16.21,0,0,0,6-1.27l.68,5.27A23.77,23.77,0,0,1,56.47,33.61Z"/><path class="cls-1" d="M72.34,8.71a3.42,3.42,0,0,1-3.45-3.4,3.47,3.47,0,0,1,6.94,0A3.46,3.46,0,0,1,72.34,8.71ZM69.43,33.2V10.6h5.82V33.2Z"/><path class="cls-1" d="M89.78,33.65c-5,0-6.55-1.82-6.55-7.09V15.1H79.32V10.6h3.87v-7L89,2.09V10.6h5.5v4.5H89V25c0,2.91.68,3.73,2.68,3.73a11,11,0,0,0,2.82-.36v4.68A19.7,19.7,0,0,1,89.78,33.65Z"/><path class="cls-1" d="M102.82,8.71a3.42,3.42,0,0,1-3.45-3.4,3.48,3.48,0,0,1,6.95,0A3.46,3.46,0,0,1,102.82,8.71ZM99.91,33.2V10.6h5.82V33.2Z"/><path class="cls-1" d="M110.91,33.2V29.06L120,15.69c-.86.05-2.64.09-4.82.09h-4V10.6H127v4.13L118.1,27.92c1,0,3.46,0,5.14,0h4V33.2Z"/><path class="cls-1" d="M150.8,22.83h-14c0,4.23,2.05,6.28,6.23,6.28a16.22,16.22,0,0,0,6.6-1.41l.54,4.5a22.53,22.53,0,0,1-8.09,1.45c-7.19,0-11.19-3.59-11.19-11.55,0-6.91,3.82-12,10.6-12,6.59,0,9.5,4.5,9.5,10.09A18.29,18.29,0,0,1,150.8,22.83Zm-9.51-8.46c-2.41,0-4.09,1.77-4.41,4.5h8.33C145.3,16.05,143.75,14.37,141.29,14.37Z"/><path class="cls-1" d="M169.72,33.2V18.74c0-2.37-.64-3.78-2.78-3.78-2.95,0-5.27,3.37-5.27,7.33V33.2h-5.82V10.6h5.5a24.63,24.63,0,0,1-.32,4l0,0a8.27,8.27,0,0,1,7.69-4.54c5.1,0,6.73,3.27,6.73,7.23V33.2Z"/><path class="cls-1" d="M185.72,33.65a30.6,30.6,0,0,1-4.72-.41l.13-4.77a20.15,20.15,0,0,0,4.87.68c2.23,0,3.68-.91,3.68-2.41,0-4-9.14-1.73-9.14-9.41,0-4,3.23-7.23,9.6-7.23a26.83,26.83,0,0,1,4.13.4l-.18,4.6a15.46,15.46,0,0,0-4.18-.59c-2.28,0-3.37.91-3.37,2.32,0,3.68,9.28,2,9.28,9.37C195.82,30.65,191.91,33.65,185.72,33.65Z"/><path class="cls-1" d="M217.19,33.29c-1.86,0-5.09-.09-8.95-.09V2.55c2.59-.14,6.59-.23,10.36-.23,6.64,0,10.33,2.68,10.33,7.59a7.44,7.44,0,0,1-4.87,6.87v.09a6.78,6.78,0,0,1,5.46,6.87C229.52,28.2,226.47,33.29,217.19,33.29Zm.42-26.19c-1.23,0-2.42,0-3.46.09v8c.72,0,1.45,0,2.41,0,4,0,6.14-1.63,6.14-4.36C222.7,8.59,221.33,7.1,217.61,7.1Zm-.87,12.55c-.45,0-2,0-2.59,0v8.6a27.09,27.09,0,0,0,3.23.18c3.86,0,5.82-1.82,5.82-4.59C223.2,20.87,220.6,19.65,216.74,19.65Z"/><path class="cls-1" d="M246.21,33.2a24.67,24.67,0,0,1,.23-3.82l-.05-.05a7.66,7.66,0,0,1-7.23,4.32c-4.09,0-6.46-2.32-6.46-5.95,0-5.41,5.37-8.28,13.05-8.28V18.19c0-2.36-1.13-3.59-4.41-3.59a14.81,14.81,0,0,0-6.68,1.77l-.5-4.86a24.62,24.62,0,0,1,8.09-1.41c7.28,0,9.33,3,9.33,7.86v9.42c0,1.82,0,3.95.13,5.82Zm-.46-10c-6.14,0-7.5,1.78-7.5,3.6a2.38,2.38,0,0,0,2.68,2.41c2.87,0,4.82-2.73,4.82-5.46Z"/><path class="cls-1" d="M271.36,33.2V18.74c0-2.37-.64-3.78-2.78-3.78-2.95,0-5.27,3.37-5.27,7.33V33.2h-5.83V10.6H263a24.63,24.63,0,0,1-.32,4l.05,0a8.24,8.24,0,0,1,7.68-4.54c5.09,0,6.73,3.27,6.73,7.23V33.2Z"/><path class="cls-1" d="M295.82,33.2l-7-11.19V33.2H283V0h5.82V20l6.59-9.41h7.1l-7.92,10.32L303.1,33.2Z"/></svg>